<?xml version="1.0" standalone="no"?>
<!DOCTYPE svg PUBLIC "-//W3C//DTD SVG 20010904//EN"
 "http://www.w3.org/TR/2001/REC-SVG-20010904/DTD/svg10.dtd">
<svg version="1.0" xmlns="http://www.w3.org/2000/svg"
 width="1002.000000pt" height="1002.000000pt" viewBox="0 0 1002.000000 1002.000000"
 preserveAspectRatio="xMidYMid meet">
<metadata>
Created by potrace 1.11, written by Peter Selinger 2001-2013
</metadata>
<g transform="translate(0.000000,1002.000000) scale(0.100000,-0.100000)"
fill="#000000" stroke="none">
<path d="M690 10000 c-320 -68 -550 -284 -652 -612 l-23 -73 -3 -4255 c-2
-3849 -1 -4263 14 -4340 66 -352 330 -617 683 -684 75 -14 493 -16 4301 -16
3808 0 4226 2 4301 16 353 67 617 332 683 684 15 77 16 491 14 4340 l-3 4255
-23 73 c-103 334 -343 554 -671 616 -75 14 -492 16 -4310 15 -4041 0 -4230 -1
-4311 -19z m7577 -2022 c-3 -13 -49 -246 -102 -518 -52 -272 -100 -519 -106
-547 l-10 -53 -970 0 -969 0 -5 -22 c-2 -13 -41 -212 -85 -443 -45 -231 -130
-670 -190 -975 -60 -305 -143 -733 -185 -950 -42 -217 -143 -737 -225 -1155
-82 -418 -165 -847 -185 -952 l-37 -193 -753 0 c-712 0 -753 1 -749 18 7 32
193 986 278 1427 47 242 157 811 246 1265 332 1704 380 1950 380 1965 0 13
-104 15 -965 15 -531 0 -965 2 -965 5 0 13 222 1120 226 1127 3 4 1214 8 2691
8 l2685 0 -5 -22z"/>
</g>
</svg>
